<?xml version="1.0" encoding="UTF-8"?>
<svg id="Object" xmlns="http://www.w3.org/2000/svg" viewBox="0 0 1122 1122">
  <defs>
    <style>
      .cls-1 {
        fill: #aad4c8;
      }

      .cls-1, .cls-2, .cls-3, .cls-4 {
        stroke-width: 0px;
      }

      .cls-2 {
        fill: none;
      }

      .cls-3 {
        fill: #fff;
      }

      .cls-4 {
        fill: #616e7d;
      }
    </style>
  </defs>
  <path class="cls-2" d="m740.03,502.86v-12.6c0-7.4-5.29-13.47-12.39-15.33-.61,2.28-1.34,4.52-2.05,6.75.77,5.98,1.34,12.02,1.34,18.21s-.5,12.65-1.27,18.85c8.1-1.13,14.37-7.77,14.37-15.88Z"/>
  <path class="cls-2" d="m691.67,459.18c-57.43-4.23-215.1-41.18-215.1-41.18-9.55,16.96-34.5,38.52-53.97,52.35-.71,3.03-1.39,6.06-1.88,9.16-1.05,6.67-1.76,13.44-1.76,20.38,0,4.96.31,9.83.87,14.66.9,8.24,2.64,16.24,5.02,23.98,17.37,56.54,71.8,97.94,136.15,97.94s118.76-41.42,136.14-97.95c2.38-7.74,4.13-15.72,5.04-23.98.54-4.81.85-9.69.85-14.65,0-6.94-.71-13.71-1.76-20.38-1.09-6.91-2.78-13.58-4.9-20.13-1.49-.01-3.06-.08-4.7-.2Z"/>
  <path class="cls-3" d="m581.02,704.55l19.71,129.42h23.6l36.66-192.51c-3.61-.27-7.19-.54-10.86-.54h-11.82c-23.1,11.79-49.38,18.52-77.31,18.52s-54.22-6.73-77.3-18.52h-11.82c-3.69,0-7.27.27-10.86.54l36.66,192.51h23.59l19.71-129.42h.69l-19.34-35.53h77.35l-19.34,35.53h.69Z"/>
  <path class="cls-4" d="m660.99,641.47l-36.66,192.51h-126.64l-36.66-192.51c-74.86,5.57-133.9,67.91-133.9,144.21v70.24h467.76v-70.24c0-76.3-59.04-138.64-133.89-144.21Z"/>
  <polygon class="cls-1" points="521.27 833.98 600.72 833.98 581.02 704.55 580.33 704.55 599.67 669.02 522.32 669.02 541.67 704.55 540.98 704.55 521.27 833.98"/>
  <path class="cls-4" d="m358.07,490.25v12.6c0,21.58,18.24,39.1,40.65,39.1h2.39c12.23,42.86,42.58,78.55,82.6,98.98,23.08,11.79,49.37,18.52,77.3,18.52s54.21-6.73,77.31-18.52c40.02-20.43,70.35-56.11,82.58-98.98h2.39c22.41,0,40.65-17.53,40.65-39.1v-12.6c0-18.68-13.72-34.26-31.97-38.11.64-5.62,1.08-11.29,1.08-17.1l-.08-1.63c.03-4.14-.11-8.42-.66-13.01h0c-2.5-26.67-11.78-51.36-26.11-72.32-7.38-10.81-16.2-20.55-26.02-29.13-26.26-22.96-60.3-37.15-97.7-38.05l-1.89-1.5c-1.61-1.76-3.37-2.08-4.56-2.08-2.8,0-4.77,1.86-6.36,3.38h-.51c-9.03-9.05-15.82-14.63-21.64-14.63h-.03c-5.55.43-31.58,9.66-39.89,15.91-1.85,1.39-3.92,3.16-6.1,5.13-63.9,18.87-110.56,77.92-110.56,147.93,0,1.07.08,2.12.1,3.18-.08,4.71.07,9.35.51,13.93-18.95,3.29-33.47,18.95-33.47,38.11Zm369.58-15.33c7.1,1.86,12.39,7.93,12.39,15.33v12.6c0,8.1-6.27,14.74-14.37,15.88.77-6.2,1.27-12.46,1.27-18.85s-.57-12.23-1.34-18.21c.71-2.24,1.43-4.47,2.05-6.75Zm-306.92,4.58c.49-3.1,1.16-6.12,1.88-9.16,19.47-13.83,44.42-35.39,53.97-52.35,0,0,157.67,36.95,215.1,41.18,1.65.12,3.21.19,4.7.2,2.11,6.55,3.81,13.22,4.9,20.13,1.05,6.67,1.76,13.44,1.76,20.38,0,4.96-.31,9.83-.85,14.65-.91,8.26-2.66,16.24-5.04,23.98-17.38,56.53-71.78,97.95-136.14,97.95s-118.78-41.4-136.15-97.94c-2.38-7.74-4.13-15.73-5.02-23.98-.55-4.83-.87-9.71-.87-14.66,0-6.94.71-13.71,1.76-20.38Zm-38.76,10.75c0-7.96,6.09-14.44,14-15.7.05,3.07.16,6.09.22,9.16-.66,5.32-1.13,10.68-1.13,16.18,0,6.39.48,12.65,1.26,18.85-8.09-1.13-14.36-7.77-14.36-15.88v-12.6Z"/>
</svg>